<?xml version="1.0" encoding="utf-8"?>
<!-- Generator: Adobe Illustrator 27.1.1, SVG Export Plug-In . SVG Version: 6.00 Build 0)  -->
<svg version="1.1" xmlns="http://www.w3.org/2000/svg" xmlns:xlink="http://www.w3.org/1999/xlink" x="0px" y="0px"
	 viewBox="0 0 64.3 65.4" style="enable-background:new 0 0 64.3 65.4;" xml:space="preserve" className="header_logo">
<path className="letter_r" d="M20.5,2.6c4.7,0,7.6,1.6,7.6,8.8v15.3c0,3.9-1.9,5.8-4.3,6.4c2.7,0.6,4.7,2.7,4.7,8.4v21.4h-8.1V42.8
	c0-5.3-0.8-6.4-4.7-6.4h-3.6v26.5H4V2.6H20.5z M12.1,8.1v21.9h3.6c3.5,0,4.4-1.6,4.4-6V13.8c0-4.7-1-5.7-4.3-5.7H12.1z"/>
<path className="st0" d="M35.6,13.2c0-7.9,3.7-10.6,8.5-10.6h7.5c4.7,0,8.5,2.7,8.5,10.6v10.2h-8v-9.1c0-4.6-1-6.6-4.2-6.6
	c-3.3,0-4.2,2-4.2,6.7V51c0,4.7,0.9,6.7,4.2,6.7c3.2,0,4.2-2,4.2-6.6v-9.7h8v10.8c0,7.9-3.8,10.6-8.5,10.6h-7.5
	c-4.8,0-8.5-2.7-8.5-10.6V13.2z"/>
</svg>
